<svg xmlns="http://www.w3.org/2000/svg" xml:space="preserve" width="0.266661in" height="0.266661in" version="1.1" style="shape-rendering:geometricPrecision; text-rendering:geometricPrecision; image-rendering:optimizeQuality; fill-rule:evenodd; clip-rule:evenodd"
viewBox="0 0 266.66 266.66"
 >
 <defs>
  <style type="text/css">
  </style>
 </defs>
 <g id="Слой_x0020_1">
  <metadata id="CorelCorpID_0Corel-Layer"/>
  <rect fill="none" x="-0.01" y="-0" width="266.67" height="266.67"/>
  <g id="_2066599870672">
   <path fill="#2595E7"  d="M73.41 219.04c23.61,14.81 95.98,14.91 119.81,0 2.51,-20.43 1.85,-43.68 -9.53,-56.98 -12.49,-14.6 -25.51,-15.36 -50.38,-15.34 -25.8,0.02 -38.65,1.07 -51.13,16.25 -10.62,12.91 -11.21,36.6 -8.76,56.07z"/>
   <path fill="#2595E7"  d="M168.67 138.65c10.99,6.15 19.62,8.99 27.55,22.5 7.34,12.52 8.39,26.74 8.15,43.75 27.91,-0.59 38.67,-3.97 62.29,-10.7 -0.18,-34.32 1.34,-57.5 -25.67,-69.51 -12.8,-5.69 -29.69,-3.64 -44.38,-3.63 -23.93,0.01 -20.32,-0.02 -30.07,16.31l2.13 1.28z"/>
   <path fill="#2595E7"  d="M62.22 204.93c-0.14,-17.35 0.59,-32.54 8.72,-44.95 9,-13.73 16.16,-13.66 29.11,-22.6 -8.58,-18.11 -10.5,-16.22 -33.42,-16.26 -63.07,-0.15 -66.75,14.97 -66.64,73.04 24.22,6.74 33.55,9.96 62.22,10.77z"/>
   <circle fill="#2595E7"  cx="216.7" cy="78.56" r="34.18"/>
   <circle fill="#2595E7"  cx="50.03" cy="78.56" r="34.18"/>
   <circle fill="#2595E7"  cx="133.29" cy="102.74" r="34.18"/>
  </g>
 </g>
</svg>
