<svg width="68" height="80" viewBox="0 0 68 80" fill="none" xmlns="http://www.w3.org/2000/svg"><path d="M34 26.563c7.335 0 13.281-5.947 13.281-13.282S41.335 0 34 0c-7.335 0-13.281 5.946-13.281 13.281 0 7.335 5.946 13.281 13.281 13.281zm9.76 1.799A17.862 17.862 0 0134 31.25a17.862 17.862 0 01-9.76-2.888 27.317 27.317 0 00-8.496 5.19L34 40.398l18.256-6.846a27.314 27.314 0 00-8.497-5.19zm18.365 20.076h-1.563a2.344 2.344 0 00-2.343 2.343v6.25a2.344 2.344 0 002.343 2.344h1.563a5.469 5.469 0 100-10.938zM7.665 36.605a2.344 2.344 0 00-1.009 1.927v5.218h.782a7.04 7.04 0 017.03 7.031v6.25a7.04 7.04 0 01-7.03 7.031h-.782v4.939c0 .977.606 1.851 1.521 2.194L31.657 80V44.525L9.822 36.337a2.342 2.342 0 00-2.158.268z" fill="#2595E7"/><path d="M53.531 57.031v-6.25a7.04 7.04 0 017.032-7.031h.78v-5.218a2.344 2.344 0 00-3.166-2.195l-21.833 8.188V80l23.479-8.805a2.344 2.344 0 001.52-2.194v-4.939h-.78a7.04 7.04 0 01-7.032-7.03zm-43.75 0v-6.25a2.344 2.344 0 00-2.344-2.343H5.875a5.469 5.469 0 100 10.937h1.563a2.344 2.344 0 002.343-2.344z" fill="#2595E7"/></svg>