<svg width="80" height="78" viewBox="0 0 80 78" fill="none" xmlns="http://www.w3.org/2000/svg"><path d="M79.608 21.026a2.794 2.794 0 00-3.821-.973l-9.37 5.569-1.166-3.33c.87-2.744-.425-5.755-3.121-6.94-1.165-.513-3.297-1.548-4.63-1.587l-12.564.28a2.792 2.792 0 00-2.704 2.42l-1.4 10.482 4.524-2.688c.49-.294 1.015-.471 1.545-.592l.548-4.097 3.969-.088-1.867 4.253a5.276 5.276 0 013.09 2.375c1.436 2.425.712 5.512-1.583 7.082-.598.416-5.429 3.264-6.074 3.649l-2.07 10.094-9.332-2.78c-.979-.29-1.968-.101-2.775.395l5.563 5.022c.936.846 1.521 1.96 1.783 3.153l6.4 1.907a3.459 3.459 0 004.37-2.616l1.873-9.126 6.958 6.009-3.386 18.025a3.453 3.453 0 106.788 1.277L64.9 48.273a3.452 3.452 0 00-1.08-3.203l-6.088-5.499 4.26-9.702.285.813c.593 1.694 2.57 2.363 4.058 1.478l12.301-7.31a2.79 2.79 0 00.973-3.824z" fill="#2595E7"/><path d="M28.588 45.946l1.07-2.435 1.86-4.236 1.332-3.034.286.817a2.793 2.793 0 004.058 1.477l12.301-7.31a2.787 2.787 0 00.973-3.824 2.795 2.795 0 00-3.821-.973l-9.372 5.568-1.164-3.33c.867-2.743-.425-5.754-3.122-6.939l-2.232-.98c-.554-.245-1.818-.62-2.733-.6l-12.225.273a2.788 2.788 0 00-2.704 2.42l-1.67 12.503a2.79 2.79 0 005.53.74l1.354-10.138 3.968-.088L16.52 38.97c-.524 1.196-.677 2.451-.556 3.664l-2.193 10.675-9.329-2.78a3.454 3.454 0 00-1.973 6.621l12.942 3.856a3.46 3.46 0 004.37-2.616c1.586-7.722 1.193-5.8 1.873-9.127l6.958 6.01L25.228 73.3a3.458 3.458 0 002.757 4.033 3.455 3.455 0 004.031-2.76l3.74-19.927a3.455 3.455 0 00-1.078-3.2l-6.09-5.5zm3.999-26.262a6.63 6.63 0 105.333-12.14 6.629 6.629 0 00-8.737 3.405c-1.508 3.43.179 7.319 3.404 8.735zm29.141-6.372a6.63 6.63 0 105.335-12.14 6.63 6.63 0 00-8.74 3.404 6.628 6.628 0 003.405 8.736z" fill="#2595E7"/></svg>